# xmcd
#
# Track frame offsets:
#	150
#	31430
#	49072
#	64225
#	78980
#	93270
#	109640
#	125365
#	144632
#	159927
#	180520
#	199805
#	216702
#	232682
#	247617
#	268217
#
# Disc length: 3800 seconds
#
# Revision: 1
# Processed by: cddbd v1.4PL0 Copyright (c) Steve Scherf et al.
# Submitted via: audiograbber 1.80.04
#
DISCID=d70ed610
DTITLE=Alabama - When It All Goes South
DYEAR=2000
DGENRE=
TTITLE0=When It All Goes South
TTITLE1=The Woman He Loves
TTITLE2=Clear Across America Tonight
TTITLE3=Will You Marry Me (duet w/Jann Arden)
TTITLE4=I Can't Hide My Heart
TTITLE5=I Can't Love You Any Less
TTITLE6=Reinvent The Wheel
TTITLE7=I Write A Little
TTITLE8=Down This Road
TTITLE9=Love Remains (guest vocals by Christopher Cross)
TTITLE10=Start Living
TTITLE11=Simple As That
TTITLE12=You Only Paint The Picture Once
TTITLE13=Wonderful Waste of Time
TTITLE14=Right Where I Am
TTITLE15=Second Chances
EXTD=
EXTT0=
EXTT1=
EXTT2=
EXTT3=
EXTT4=
EXTT5=
EXTT6=
EXTT7=
EXTT8=
EXTT9=
EXTT10=
EXTT11=
EXTT12=
EXTT13=
EXTT14=
EXTT15=
PLAYORDER=
